<!-- Generated by IcoMoon.io -->
<svg version="1.1" xmlns="http://www.w3.org/2000/svg" width="32" height="32" viewBox="0 0 32 32">
  <title>facebook</title>
  <path fill="#000" d="M15.912 31.5c-2.125 0-4.163-0.443-6.112-1.24-1.86-0.797-3.543-1.948-4.96-3.365s-2.48-3.012-3.365-4.96c-0.532-1.772-0.975-3.808-0.975-5.935s0.443-4.163 1.24-6.112c0.797-1.86 1.948-3.543 3.365-4.96s3.012-2.568 4.96-3.365c1.683-0.62 3.72-1.063 5.845-1.063s4.163 0.443 6.112 1.24c1.86 0.797 3.543 1.948 4.96 3.365s2.48 3.1 3.365 4.96c0.797 1.86 1.24 3.897 1.24 6.112 0 2.125-0.443 4.163-1.24 6.023s-1.948 3.543-3.365 4.96c-1.417 1.417-3.012 2.48-4.96 3.365-1.86 0.532-3.897 0.975-6.112 0.975zM11.925 16.532h2.303v6.997h2.835v-6.997h2.835v-2.835h-2.835v-1.417c0-0.265 0.088-0.443 0.177-0.62s0.265-0.265 0.443-0.265h2.303v-2.923h-2.303c-0.975 0-1.772 0.355-2.48 1.063s-0.975 1.595-0.975 2.657v1.505h-2.303v2.835z"></path>
</svg>
