<!-- Generated by IcoMoon.io -->
<svg version="1.1" xmlns="http://www.w3.org/2000/svg" width="32" height="32" viewBox="0 0 32 32">
  <title>googleplus</title>
  <path fill="#000" d="M15.912 31.5c-2.125 0-4.163-0.443-6.112-1.24-1.86-0.797-3.543-1.948-4.96-3.365s-2.48-3.1-3.365-4.96c-0.532-1.772-0.975-3.808-0.975-6.023 0-2.125 0.443-4.163 1.24-6.023s1.948-3.543 3.365-4.96 3.012-2.48 4.96-3.365c1.683-0.62 3.72-1.063 5.845-1.063s4.163 0.443 6.112 1.24c1.86 0.797 3.543 1.948 4.96 3.365s2.48 3.012 3.365 4.96c0.797 1.86 1.24 3.897 1.24 6.023s-0.443 4.163-1.24 6.112c-0.797 1.86-1.948 3.543-3.365 4.96s-3.012 2.568-4.96 3.365c-1.86 0.532-3.897 0.975-6.112 0.975zM13.255 16.532c0 0.443 0.088 0.885 0.265 1.328-0.532 0.265-0.885 0.62-1.152 1.063s-0.443 0.885-0.443 1.417c0 0.885 0.355 1.595 1.152 2.215s1.683 0.885 2.835 0.885c1.152 0 2.037-0.265 2.835-0.885s1.152-1.328 1.152-2.215-0.355-1.595-1.152-2.215c-0.797-0.62-1.683-0.885-2.835-0.885h-0.355c-0.088-0.177-0.088-0.443-0.088-0.708 0-0.088 0-0.265 0-0.443s0.088-0.265 0.088-0.265h0.088c0.885 0 1.683-0.355 2.303-0.975s0.975-1.417 0.975-2.392c0-0.265 0-0.443-0.088-0.708s-0.177-0.443-0.355-0.532l1.152-0.62v-2.037l-2.392 1.328c-0.265-0.177-0.532-0.355-0.797-0.443s-0.62-0.177-0.885-0.177c-0.885 0-1.683 0.355-2.303 0.975s-0.975 1.417-0.975 2.303c0 0.532 0.088 0.975 0.355 1.417 0.177 0.443 0.532 0.797 0.885 1.152-0.088 0.443-0.265 0.975-0.265 1.417zM15.735 14.14c-0.443 0-0.797-0.177-1.063-0.443s-0.443-0.708-0.443-1.063c0-0.443 0.177-0.797 0.443-1.063 0.355-0.355 0.708-0.443 1.063-0.443 0.443 0 0.797 0.177 1.063 0.443 0.355 0.265 0.443 0.708 0.443 1.063 0 0.443-0.177 0.797-0.443 1.063s-0.62 0.443-1.063 0.443zM15.912 21.58c-0.532 0-0.885-0.088-1.24-0.355s-0.532-0.532-0.532-0.885c0-0.355 0.177-0.62 0.532-0.885s0.797-0.355 1.24-0.355c0.532 0 0.885 0.088 1.24 0.355s0.532 0.532 0.532 0.885c0 0.355-0.177 0.62-0.532 0.885-0.265 0.177-0.708 0.355-1.24 0.355z"></path>
</svg>
