<!-- Generated by IcoMoon.io -->
<svg version="1.1" xmlns="http://www.w3.org/2000/svg" width="32" height="32" viewBox="0 0 32 32">
  <title>search</title>
  <g fill="#FFF">
    <path fill="#FFF" d="M12.48 24c-3.040 0-6.080-1.28-8.16-3.36-2.24-2.24-3.36-5.12-3.36-8.16s1.28-6.080 3.36-8.16c2.080-2.24 4.96-3.52 8.16-3.52 3.040 0 6.080 1.28 8.16 3.36 2.24 2.24 3.36 5.12 3.36 8.32 0 3.040-1.28 6.080-3.36 8.16v0 0c-2.24 2.24-5.12 3.36-8.16 3.36zM12.48 4c-2.24 0-4.48 0.8-5.92 2.4-1.6 1.6-2.4 3.68-2.4 5.92s0.8 4.32 2.4 5.92c1.6 1.6 3.68 2.4 5.92 2.4s4.32-0.8 5.92-2.4v0c1.6-1.6 2.4-3.68 2.4-5.92 0-2.080-0.8-4.32-2.4-5.92s-3.68-2.4-5.92-2.4z"></path>
    <path fill="#FFF" d="M19.081 21.28l2.263-2.263 10.182 10.182-2.263 2.263-10.182-10.182z"></path>
  </g>
</svg>
