<!-- Generated by IcoMoon.io -->
<svg version="1.1" xmlns="http://www.w3.org/2000/svg" width="32" height="32" viewBox="0 0 32 32">
  <title>twitter</title>
  <path fill="#000" d="M16 0.498c2.131 0 4.166 0.484 6.007 1.26s3.585 1.938 4.941 3.391 2.519 3.003 3.391 4.941c0.775 1.841 1.259 3.875 1.259 6.007s-0.484 4.166-1.259 5.91c-0.775 1.841-1.938 3.585-3.391 4.941s-3.003 2.519-4.941 3.391c-1.841 0.775-3.875 1.259-6.007 1.259s-4.166-0.484-6.104-1.259c-1.841-0.775-3.585-1.938-4.941-3.391s-2.616-3.003-3.391-4.941c-0.581-1.938-1.066-3.972-1.066-6.104s0.484-4.166 1.26-6.007 1.938-3.585 3.391-4.941 3.1-2.519 4.941-3.391c1.744-0.581 3.779-1.066 5.91-1.066zM24.332 11.446c-0.291 0.097-0.581 0.194-0.872 0.291s-0.581 0.194-0.969 0.194c0.388-0.194 0.581-0.484 0.872-0.775s0.484-0.581 0.484-0.969c-0.388 0.194-0.581 0.291-0.969 0.484s-0.678 0.291-1.066 0.291c-0.291-0.388-0.581-0.484-0.969-0.678s-0.775-0.291-1.259-0.291c-0.872 0-1.55 0.291-2.228 0.872s-0.969 1.356-0.969 2.228c0 0.194 0 0.484 0.097 0.678-1.356-0.097-2.616-0.388-3.585-0.969s-2.035-1.356-2.81-2.422c-0.291 0.484-0.388 1.066-0.388 1.55 0 1.163 0.484 2.035 1.356 2.616-0.484 0-0.969-0.097-1.453-0.388v0c0 0.775 0.291 1.453 0.678 2.035 0.484 0.484 1.066 0.969 1.744 1.066-0.097 0-0.291 0.097-0.388 0.097s-0.291 0-0.484 0c-0.097 0-0.291 0-0.484-0.097 0.194 0.581 0.484 1.163 1.066 1.55s1.163 0.581 1.841 0.678c-1.163 0.872-2.422 1.356-3.875 1.356h-0.581c0.678 0.484 1.453 0.775 2.228 1.066s1.647 0.388 2.616 0.388c1.453 0 2.713-0.291 3.875-0.775s2.035-1.259 2.81-2.131c0.678-0.872 1.356-1.744 1.647-2.81s0.484-2.131 0.484-3.197v-0.484c0.388-0.291 0.581-0.484 0.872-0.775 0.194 0 0.484-0.388 0.678-0.678v0z"></path>
</svg>
